<?xml version="1.0" encoding="UTF-8" standalone="no"?>
<svg
   xmlns:dc="http://purl.org/dc/elements/1.1/"
   xmlns:cc="http://creativecommons.org/ns#"
   xmlns:rdf="http://www.w3.org/1999/02/22-rdf-syntax-ns#"
   xmlns:svg="http://www.w3.org/2000/svg"
   xmlns="http://www.w3.org/2000/svg"
   xmlns:sodipodi="http://sodipodi.sourceforge.net/DTD/sodipodi-0.dtd"
   xmlns:inkscape="http://www.inkscape.org/namespaces/inkscape"
   width="24"
   height="23.716"
   preserveAspectRatio="xMidYMid meet"
   viewBox="0 0 24 23.716"
   version="1.1"
   id="svg3468"
   sodipodi:docname="codewars-custom.svg"
   inkscape:version="1.0.2 (e86c870879, 2021-01-15, custom)">
  <metadata
     id="metadata3474">
    <rdf:RDF>
      <cc:Work
         rdf:about="">
        <dc:format>image/svg+xml</dc:format>
        <dc:type
           rdf:resource="http://purl.org/dc/dcmitype/StillImage" />
        <dc:title></dc:title>
      </cc:Work>
    </rdf:RDF>
  </metadata>
  <defs
     id="defs3472" />
  <sodipodi:namedview
     pagecolor="#ffffff"
     bordercolor="#666666"
     borderopacity="1"
     objecttolerance="10"
     gridtolerance="10"
     guidetolerance="10"
     inkscape:pageopacity="0"
     inkscape:pageshadow="2"
     inkscape:window-width="1920"
     inkscape:window-height="1056"
     id="namedview3470"
     showgrid="false"
     inkscape:zoom="23.916667"
     inkscape:cx="3.8466899"
     inkscape:cy="11.858"
     inkscape:window-x="1440"
     inkscape:window-y="0"
     inkscape:window-maximized="0"
     inkscape:current-layer="svg3468"
     fit-margin-top="0"
     fit-margin-left="0"
     fit-margin-right="0"
     fit-margin-bottom="0" />
  <path
     id="rect4037"
     style="fill:#1a1a1a;stroke-width:3.8022"
     d="M 10.800781 1.8164062 A 0.904 0.904 0 0 0 9.9511719 2.4335938 A 0.994 0.994 0 0 0 8.2558594 3.0136719 A 1.094 1.094 0 0 0 7.7851562 2.8984375 A 1.101 1.101 0 0 0 6.65625 3.9707031 A 1.098 1.098 0 0 0 6.7167969 4.3476562 A 1.334 1.334 0 0 0 5.2714844 5.5214844 A 1.33 1.33 0 0 0 5.296875 5.9746094 A 0.649 0.649 0 0 0 4.8632812 6.2617188 A 0.639 0.639 0 0 0 4.765625 6.5429688 A 0.784 0.784 0 0 0 3.6835938 7.3769531 A 0.904 0.904 0 0 1 3.6875 7.3789062 L 3.6914062 7.4179688 A 0.784 0.784 0 0 1 3.6835938 7.3789062 A 0.904 0.904 0 0 0 2.8808594 8.8574219 A 0.994 0.994 0 0 0 2.5058594 10.611328 A 1.094 1.094 0 0 0 2.1582031 10.951172 A 1.102 1.102 0 0 0 2.4960938 12.472656 A 1.098 1.098 0 0 0 2.8457031 12.617188 A 1.334 1.334 0 0 0 3.1074219 14.462891 A 1.326 1.326 0 0 0 3.6054688 14.701172 L 3.5859375 14.697266 A 0.642 0.642 0 0 0 3.5742188 15.308594 A 0.639 0.639 0 0 0 3.7695312 15.53125 A 0.784 0.784 0 0 0 3.9453125 16.888672 A 0.904 0.904 0 0 0 4.8183594 18.330078 A 0.994 0.994 0 0 0 6.1367188 19.539062 A 1.094 1.094 0 0 0 6.2597656 20.011719 A 1.102 1.102 0 0 0 7.7402344 20.488281 A 1.098 1.098 0 0 0 8.046875 20.257812 A 1.334 1.334 0 0 0 9.7636719 20.962891 A 1.326 1.326 0 0 0 10.392578 20.447266 A 0.64 0.64 0 0 0 11.013672 21.027344 A 0.639 0.639 0 0 0 11.302734 20.962891 A 0.784 0.784 0 0 0 12.576172 21.455078 A 0.904 0.904 0 0 0 14.261719 21.380859 A 0.994 0.994 0 0 0 15.957031 20.798828 A 1.098 1.098 0 0 0 16.427734 20.917969 A 1.102 1.102 0 0 0 17.556641 19.845703 A 1.098 1.098 0 0 0 17.501953 19.46875 A 1.334 1.334 0 0 1 17.462891 19.464844 L 17.5 19.464844 A 1.098 1.098 0 0 1 17.501953 19.46875 A 1.334 1.334 0 0 0 18.941406 18.296875 A 1.33 1.33 0 0 0 18.919922 17.839844 A 0.625 0.625 0 0 0 19.349609 17.552734 A 0.639 0.639 0 0 0 19.447266 17.271484 A 0.784 0.784 0 0 0 20.521484 16.398438 A 0.814 0.814 0 0 1 20.529297 16.439453 A 0.904 0.904 0 0 0 21.332031 14.957031 A 1.006 1.006 0 0 0 21.9375 14.523438 A 0.994 0.994 0 0 0 21.710938 13.205078 A 1.094 1.094 0 0 0 22.054688 12.861328 A 1.102 1.102 0 0 0 21.716797 11.345703 A 1.098 1.098 0 0 0 21.367188 11.195312 A 1.334 1.334 0 0 0 21.109375 9.3535156 A 1.326 1.326 0 0 0 20.626953 9.1171875 A 0.642 0.642 0 0 0 20.638672 8.5058594 A 0.639 0.639 0 0 0 20.447266 8.28125 A 0.784 0.784 0 0 0 20.271484 6.9257812 A 0.904 0.904 0 0 0 19.398438 5.4863281 A 0.994 0.994 0 0 0 18.076172 4.2734375 A 1.094 1.094 0 0 0 17.955078 3.8027344 A 1.102 1.102 0 0 0 16.472656 3.3242188 A 1.098 1.098 0 0 0 16.167969 3.5605469 A 1.325 1.325 0 0 0 14.449219 2.8496094 A 1.322 1.322 0 0 0 13.824219 3.3652344 C 13.789219 3.0522344 13.529219 2.7970625 13.199219 2.7890625 A 0.639 0.639 0 0 0 12.910156 2.8496094 A 0.784 0.784 0 0 0 11.636719 2.3574219 A 0.904 0.904 0 0 0 10.808594 1.8183594 L 10.808594 1.8164062 A 0.904 0.904 0 0 0 10.800781 1.8164062 z M 11.455078 3.3515625 A 0.784 0.784 0 0 0 12.117188 3.7460938 A 0.784 0.784 0 0 0 12.572266 3.6152344 A 0.642 0.642 0 0 0 12.681641 3.8242188 A 1.12 1.12 0 0 0 12.621094 3.8515625 A 1.11 1.11 0 0 0 12.023438 4.9042969 A 1.012 1.012 0 0 0 11.470703 5.0175781 A 1.02 1.02 0 0 0 11.033203 6.3886719 L 11.033203 6.390625 A 0.915 0.915 0 0 0 10.410156 7.7050781 A 0.915 0.915 0 0 0 10.611328 7.96875 A 0.74 0.74 0 0 0 10.287109 8.9648438 A 0.736 0.736 0 0 0 10.646484 9.3007812 A 0.665 0.665 0 0 0 10.970703 10.417969 A 0.422 0.422 0 0 0 10.966797 10.810547 A 0.418 0.418 0 0 0 11.087891 10.953125 A 1.352 1.352 0 0 0 10.783203 11.582031 A 0.418 0.418 0 0 0 10.402344 11.597656 C 10.331344 11.310656 10.081484 11.094891 9.7714844 11.087891 A 0.661 0.661 0 0 0 9.390625 11.197266 C 9.315625 10.877266 9.0324531 10.635906 8.6894531 10.628906 A 0.74 0.74 0 0 0 8.53125 10.638672 A 0.923 0.923 0 0 0 8.5429688 10.5 A 0.915 0.915 0 0 0 7.7226562 9.5625 A 1.016 1.016 0 0 0 7.7929688 9.2265625 C 7.7999688 8.8345625 7.5905312 8.4905469 7.2695312 8.3105469 A 1.106 1.106 0 0 0 7.5019531 7.6601562 A 1.1 1.1 0 0 0 7.1933594 6.8652344 A 1.334 1.334 0 0 0 7.9199219 5.8300781 A 1.326 1.326 0 0 0 7.796875 5.0957031 A 1.098 1.098 0 0 0 8.8574219 4.0488281 A 0.99 0.99 0 0 0 9.21875 4.1230469 A 0.994 0.994 0 0 0 10.205078 3.3925781 A 0.896 0.896 0 0 0 10.787109 3.6230469 A 0.9 0.9 0 0 0 11.453125 3.3535156 L 11.455078 3.3515625 z M 16.029297 4.8632812 A 1.098 1.098 0 0 0 17.455078 5.2929688 A 0.994 0.994 0 0 0 17.560547 5.6523438 A 0.994 0.994 0 0 0 18.677734 6.1621094 A 0.896 0.896 0 0 0 18.751953 6.7871094 A 0.9 0.9 0 0 0 19.304688 7.2421875 A 0.784 0.784 0 0 0 19.275391 8.0117188 A 0.784 0.784 0 0 0 19.605469 8.3496094 A 0.642 0.642 0 0 0 19.525391 8.4570312 A 1.11 1.11 0 0 0 19.316406 8.2851562 C 18.935406 8.0391562 18.456563 8.0607812 18.101562 8.3007812 A 1.012 1.012 0 0 0 17.728516 7.8789062 A 1.02 1.02 0 0 0 16.320312 8.1914062 A 0.915 0.915 0 0 0 16.140625 8.0390625 A 0.915 0.915 0 0 0 14.871094 8.3183594 A 0.915 0.915 0 0 0 14.744141 8.625 A 0.733 0.733 0 0 0 13.728516 8.8496094 A 0.736 0.736 0 0 0 13.615234 9.3261719 A 0.665 0.665 0 0 0 12.820312 10.175781 A 0.422 0.422 0 0 0 12.480469 10.369141 A 0.422 0.422 0 0 0 12.423828 10.511719 A 1.356 1.356 0 0 0 11.751953 10.525391 C 11.743953 10.492391 11.733844 10.459781 11.714844 10.425781 A 0.418 0.418 0 0 0 11.560547 10.261719 A 0.655 0.655 0 0 0 11.710938 9.4648438 A 0.661 0.661 0 0 0 11.429688 9.1816406 A 0.738 0.738 0 0 0 11.597656 8.2929688 A 0.74 0.74 0 0 0 11.511719 8.1621094 A 0.923 0.923 0 0 0 11.638672 8.1054688 A 0.918 0.918 0 0 0 12.068359 6.9375 A 1.016 1.016 0 0 0 12.398438 6.8320312 A 1.02 1.02 0 0 0 12.951172 5.9433594 A 1.106 1.106 0 0 0 13.634766 5.8300781 A 1.11 1.11 0 0 0 14.1875 5.1699219 L 14.1875 5.1816406 A 1.334 1.334 0 0 0 15.441406 5.3222656 A 1.326 1.326 0 0 0 16.029297 4.8632812 z M 5.2480469 7.2285156 A 0.65 0.65 0 0 0 5.3496094 7.2460938 A 1.11 1.11 0 0 0 5.28125 7.6054688 A 1.11 1.11 0 0 0 5.921875 8.640625 A 1.012 1.012 0 0 0 5.7539062 9.1738281 A 1.016 1.016 0 0 0 6.7460938 10.216797 L 6.75 10.216797 A 0.915 0.915 0 0 0 7.6054688 11.392578 A 0.915 0.915 0 0 0 7.9335938 11.34375 A 0.733 0.733 0 0 0 8.6523438 12.099609 A 0.736 0.736 0 0 0 9.1210938 11.949219 A 0.665 0.665 0 0 0 10.253906 12.193359 A 0.422 0.422 0 0 0 10.597656 12.382812 A 0.418 0.418 0 0 0 10.847656 12.308594 L 10.847656 12.316406 A 1.36 1.36 0 0 0 11.205078 12.839844 A 0.418 0.418 0 0 0 10.960938 13.212891 A 0.664 0.664 0 0 0 10.197266 13.484375 A 0.661 0.661 0 0 0 10.097656 13.865234 A 0.74 0.74 0 0 0 9.2441406 14.171875 A 0.74 0.74 0 0 0 9.1738281 14.314453 A 0.919 0.919 0 0 0 9.0625 14.228516 A 0.914 0.914 0 0 0 7.8378906 14.451172 A 1.016 1.016 0 0 0 7.5800781 14.220703 A 1.02 1.02 0 0 0 6.5292969 14.191406 A 1.106 1.106 0 0 0 6.0917969 13.660156 C 5.8307969 13.491156 5.5319531 13.447719 5.2519531 13.511719 A 1.334 1.334 0 0 0 4.7402344 12.357422 A 1.326 1.326 0 0 0 4.0488281 12.080078 A 1.098 1.098 0 0 0 3.6972656 10.630859 A 0.99 0.99 0 0 0 3.953125 10.361328 C 4.206125 9.9653281 4.1420312 9.4617187 3.8320312 9.1367188 A 0.896 0.896 0 0 0 4.3320312 8.7597656 C 4.4700312 8.5397656 4.5053125 8.2857812 4.4453125 8.0507812 A 0.784 0.784 0 0 0 5.125 7.6875 A 0.784 0.784 0 0 0 5.2480469 7.2285156 z M 16.376953 9.3613281 A 1.016 1.016 0 0 0 16.634766 9.5957031 A 1.02 1.02 0 0 0 17.683594 9.6210938 A 1.106 1.106 0 0 0 18.123047 10.15625 A 1.082 1.082 0 0 0 18.960938 10.302734 A 1.334 1.334 0 0 0 19.472656 11.460938 L 19.476562 11.460938 A 1.326 1.326 0 0 0 20.171875 11.732422 A 1.098 1.098 0 0 0 20.521484 13.185547 A 0.99 0.99 0 0 0 20.265625 13.455078 A 0.994 0.994 0 0 0 20.388672 14.679688 A 0.896 0.896 0 0 0 19.884766 15.052734 A 0.9 0.9 0 0 0 19.771484 15.763672 A 0.784 0.784 0 0 0 19.091797 16.125 A 0.784 0.784 0 0 0 18.96875 16.585938 L 18.867188 16.566406 A 1.11 1.11 0 0 0 18.939453 16.212891 A 1.11 1.11 0 0 0 18.292969 15.177734 A 1.012 1.012 0 0 0 18.460938 14.642578 C 18.475938 14.078578 18.030797 13.612656 17.466797 13.597656 A 0.919 0.919 0 0 0 17.503906 13.361328 A 0.915 0.915 0 0 0 16.607422 12.419922 A 0.915 0.915 0 0 0 16.28125 12.472656 A 0.74 0.74 0 0 0 16.28125 12.46875 C 16.28925 12.06175 15.9725 11.722844 15.5625 11.714844 A 0.736 0.736 0 0 0 15.095703 11.867188 A 0.665 0.665 0 0 0 13.958984 11.625 A 0.422 0.422 0 0 0 13.615234 11.431641 A 0.418 0.418 0 0 0 13.429688 11.470703 A 1.356 1.356 0 0 0 13.115234 10.90625 A 0.426 0.426 0 0 0 13.189453 10.820312 A 0.418 0.418 0 0 0 13.253906 10.609375 A 0.662 0.662 0 0 0 14.015625 10.332031 A 0.661 0.661 0 0 0 14.119141 9.9472656 A 0.74 0.74 0 0 0 14.972656 9.6445312 A 0.74 0.74 0 0 0 15.039062 9.5039062 A 0.926 0.926 0 0 0 15.150391 9.5859375 A 0.913 0.913 0 0 0 16.376953 9.3613281 z M 13.417969 12.21875 L 13.417969 12.226562 A 0.418 0.418 0 0 0 13.597656 12.271484 A 0.418 0.418 0 0 0 13.814453 12.21875 A 0.667 0.667 0 0 0 14.441406 12.730469 A 0.661 0.661 0 0 0 14.826172 12.617188 A 0.74 0.74 0 0 0 15.523438 13.189453 A 0.74 0.74 0 0 0 15.681641 13.175781 A 0.923 0.923 0 0 0 15.669922 13.316406 A 0.915 0.915 0 0 0 16.492188 14.251953 A 1.02 1.02 0 0 0 16.943359 15.501953 A 1.106 1.106 0 0 0 16.712891 16.15625 A 1.102 1.102 0 0 0 17.019531 16.947266 C 16.634531 17.145266 16.350922 17.522422 16.294922 17.982422 A 1.326 1.326 0 0 0 16.417969 18.71875 A 1.1 1.1 0 0 0 15.355469 19.789062 L 15.355469 19.767578 A 0.99 0.99 0 0 0 14.994141 19.689453 A 0.994 0.994 0 0 0 14.011719 20.425781 A 0.896 0.896 0 0 0 13.425781 20.189453 A 0.9 0.9 0 0 0 12.759766 20.458984 A 0.784 0.784 0 0 0 12.099609 20.066406 A 0.784 0.784 0 0 0 11.646484 20.197266 A 0.784 0.784 0 0 0 11.642578 20.201172 L 11.642578 20.197266 A 0.026 0.026 0 0 0 11.646484 20.197266 A 0.642 0.642 0 0 0 11.535156 19.988281 A 1.11 1.11 0 0 0 12.195312 18.904297 A 1.012 1.012 0 0 0 12.746094 18.796875 A 1.02 1.02 0 0 0 13.185547 17.421875 L 13.185547 17.417969 A 0.919 0.919 0 0 0 13.410156 17.335938 A 0.91 0.91 0 0 0 13.806641 16.103516 A 0.915 0.915 0 0 0 13.609375 15.841797 A 0.739 0.739 0 0 0 13.929688 14.847656 A 0.736 0.736 0 0 0 13.570312 14.511719 A 0.665 0.665 0 0 0 13.242188 13.398438 A 0.422 0.422 0 0 0 13.248047 13.003906 A 0.418 0.418 0 0 0 13.054688 12.816406 A 1.36 1.36 0 0 0 13.417969 12.21875 z M 12.453125 13.148438 A 0.418 0.418 0 0 0 12.501953 13.388672 A 0.418 0.418 0 0 0 12.652344 13.552734 A 0.67 0.67 0 0 0 12.503906 14.351562 A 0.661 0.661 0 0 0 12.783203 14.634766 A 0.738 0.738 0 0 0 12.613281 15.521484 A 0.736 0.736 0 0 0 12.703125 15.654297 A 0.919 0.919 0 0 0 12.572266 15.707031 A 0.916 0.916 0 0 0 12.148438 16.876953 A 1.02 1.02 0 0 0 11.814453 16.980469 A 1.02 1.02 0 0 0 11.261719 17.873047 A 1.106 1.106 0 0 0 10.578125 17.982422 A 1.106 1.106 0 0 0 10.029297 18.632812 C 9.6702969 18.386813 9.2053906 18.318234 8.7753906 18.490234 A 1.326 1.326 0 0 0 8.1875 18.949219 A 1.098 1.098 0 0 0 6.7578125 18.519531 A 0.99 0.99 0 0 0 6.65625 18.164062 A 0.994 0.994 0 0 0 5.5351562 17.650391 A 0.896 0.896 0 0 0 5.4609375 17.025391 A 0.89 0.89 0 0 0 4.9082031 16.570312 A 0.784 0.784 0 0 0 4.9414062 15.800781 A 0.784 0.784 0 0 0 4.6054688 15.464844 A 0.65 0.65 0 0 0 4.6875 15.359375 A 1.113 1.113 0 0 0 4.8964844 15.53125 C 5.2804844 15.77725 5.7563281 15.756578 6.1113281 15.517578 A 1.012 1.012 0 0 0 6.484375 15.935547 A 1.02 1.02 0 0 0 7.8925781 15.625 L 7.8925781 15.621094 A 0.919 0.919 0 0 0 8.0761719 15.773438 A 0.915 0.915 0 0 0 9.3417969 15.494141 A 0.915 0.915 0 0 0 9.46875 15.1875 A 0.74 0.74 0 0 0 10.488281 14.964844 A 0.736 0.736 0 0 0 10.601562 14.486328 A 0.665 0.665 0 0 0 11.392578 13.642578 A 0.422 0.422 0 0 0 11.736328 13.447266 A 0.418 0.418 0 0 0 11.796875 13.152344 C 11.898875 13.178344 12.005187 13.189453 12.117188 13.189453 A 1.36 1.36 0 0 0 12.453125 13.148438 z " />
</svg>
