<?xml version="1.0" encoding="UTF-8"?>
<svg width="1637.2mm" height="1229.8mm" version="1.1" viewBox="0 0 1637.2 1229.8" xmlns="http://www.w3.org/2000/svg" xmlns:cc="http://creativecommons.org/ns#" xmlns:dc="http://purl.org/dc/elements/1.1/" xmlns:rdf="http://www.w3.org/1999/02/22-rdf-syntax-ns#" xmlns:xlink="http://www.w3.org/1999/xlink">
 <defs>
  <linearGradient id="linearGradient19702" x1="346.36" x2="395.84" y1="-179.48" y2="-181.93" gradientTransform="matrix(1.069 .18689 -.18753 1.0511 536.12 156.97)" gradientUnits="userSpaceOnUse">
   <stop stop-color="#deaa87" offset="0"/>
   <stop stop-color="#e9c6af" offset="1"/>
  </linearGradient>
 </defs>
 <metadata>
  <rdf:RDF>
   <cc:Work rdf:about="">
    <dc:format>image/svg+xml</dc:format>
    <dc:type rdf:resource="http://purl.org/dc/dcmitype/StillImage"/>
    <dc:title/>
   </cc:Work>
  </rdf:RDF>
 </metadata>
 <g transform="translate(-392.32 173.11)">
  <text fill="#000000" font-family="sans-serif" font-size="10.583px" style="line-height:1.25;shape-inside:url(#rect1394);white-space:pre" xml:space="preserve"/>
  <path d="m474.86 199.75s301.79-141.81 525.65-30.482c70.116 34.87 63.297 467.11 63.297 467.11l-80.889 122.24-293.08 35.305s-299.32-529.31-214.98-594.17z" fill="#3c3c3c" stroke="#000" stroke-width=".26458px"/>
  <path d="m525.13 212.45s301.79-141.81 525.65-30.482c70.116 34.87 63.297 467.11 63.297 467.11l-80.89 122.24-293.08 35.305s-299.32-529.31-214.98-594.17z" fill="#4a4a4a" stroke="#000" stroke-width=".26458px"/>
  <path d="m614.92 339.65s132.68 257.52 144.8 348.9c12.122 91.381 274.9 7.7757 274.9 7.7757s20.694-390.56 21.42-426.9c0.7253-36.338-441.12 70.22-441.12 70.22z" fill="#202020"/>
  <path d="m924.91 157.3 9.9682-7.5257 87.534 20.797s9.1604 3.014 14.938 21.284 19.892 49.43 18.522 76.821c-3.0189 60.367-128.55 66.11-128.55 66.11z" fill="#202020"/>
  <g stroke="#000">
   <path d="m799.74 23.1s4.9847 112.69-2.2968 164.85c-7.2816 52.155 81.027 131 105.84 105.1 24.813-25.893 29.279-141.76 29.279-141.76z" fill="#e9c6af" stroke-width=".23389px"/>
   <path d="m896.49 235.66-60.584 3.8798s79.192 275.86 82.483 312.04c3.2913 36.179 19.581-7.3183 19.581-7.3183s26.938-291.37-3.552-306.57c-30.49-15.197-14.117-6.1476-14.117-6.1476z" fill="#b3b3b3" stroke-width=".26458px"/>
   <path d="m899.86 267.15s17.49 134.27 19.541 211.58c0.95232 35.899 7.2608 46.817 7.2608 46.817" fill="none" stroke-width=".5"/>
  </g>
  <g transform="matrix(.95442 -.085562 .30366 2.852 902.31 766.14)">
   <path d="m199.87-266.61-89.088-6.036-0.391 0.693s11.447 0.398 16.602 2.289l71.813 5.15z" fill="#4d4d4d"/>
   <g shape-rendering="auto">
    <path d="m111.33-272.74-0.496 0.959s-12.484-0.885-18.202-0.849c-2.8726 0.018-5.0455 0.477-7.5771 1.782-4.7285 2.437-6.8509 3.81-6.8509 3.81s-6.2659 0.569-3.6051-0.723c2.699-1.31 10.999-5.958 18.607-5.871 6.5482 0.075 18.124 0.892 18.124 0.892z" color="#000000" color-rendering="auto" dominant-baseline="auto" fill="#333" image-rendering="auto" solid-color="#000000" stop-color="#000000" style="font-feature-settings:normal;font-variant-alternates:normal;font-variant-caps:normal;font-variant-east-asian:normal;font-variant-ligatures:normal;font-variant-numeric:normal;font-variant-position:normal;font-variation-settings:normal;inline-size:0;isolation:auto;mix-blend-mode:normal;shape-margin:0;shape-padding:0;text-decoration-color:#000000;text-decoration-line:none;text-decoration-style:solid;text-indent:0;text-orientation:mixed;text-transform:none;white-space:normal"/>
    <path d="m111.35-272.77s-11.575-0.816-18.133-0.891c-3.8695-0.044-7.9011 1.127-11.28 2.455-3.3201 1.306-6.0334 2.775-7.3745 3.426-0.3379 0.164-0.5376 0.299-0.6275 0.413-0.0898 0.114-0.0649 0.21 0.0505 0.281 0.231 0.142 0.775 0.189 1.396 0.198 1.2479 0.02 2.8356-0.124 2.8356-0.124l0.0236-2e-3 0.0141-0.01s2.1204-1.371 6.8483-3.807c2.525-1.302 4.6715-1.755 7.5298-1.772 5.7017-0.035 18.189 0.85 18.189 0.85l0.067 5e-3 0.526-1.017zm-0.098 0.054-0.466 0.901c-0.119-8e-3 -12.44-0.88-18.146-0.844-2.887 0.018-5.0858 0.484-7.6242 1.793-4.7063 2.426-6.8175 3.79-6.838 3.803-0.0357 3e-3 -1.5766 0.141-2.7882 0.122-0.6099-9e-3 -1.1257-0.063-1.3121-0.178-0.0932-0.057-0.1167-0.129-0.0361-0.231 0.0806-0.103 0.2707-0.233 0.6022-0.394 1.3482-0.655 4.056-2.12 7.3675-3.422 3.3697-1.324 7.3823-2.483 11.194-2.439 6.5057 0.075 17.932 0.881 18.048 0.889z" color="#000000" color-rendering="auto" dominant-baseline="auto" image-rendering="auto" solid-color="#000000" stop-color="#000000" style="font-feature-settings:normal;font-variant-alternates:normal;font-variant-caps:normal;font-variant-east-asian:normal;font-variant-ligatures:normal;font-variant-numeric:normal;font-variant-position:normal;font-variation-settings:normal;inline-size:0;isolation:auto;mix-blend-mode:normal;shape-margin:0;shape-padding:0;text-decoration-color:#000000;text-decoration-line:none;text-decoration-style:solid;text-indent:0;text-orientation:mixed;text-transform:none;white-space:normal"/>
   </g>
  </g>
  <path d="m896.61 260.6-0.41906-25.123s10.885 12.271 14.633 24.443c1.3625 4.425 2.0212 28.2 2.0212 28.2s40.413-39.555 40.926-64.283-4.2104-52.16-25.736-64.856c0.91377 24.242 9.0716 61.851-31.844 76.496 0.69257 25.507 0.41906 25.123 0.41906 25.123z" fill="#ccc" stroke="#000" stroke-width=".26458px"/>
  <path d="m930.48 164.5c13.44 12.533-13.033 134.1-12.896 207.52 0.13705 73.421 11.609 212.98 15.833 232.98 4.2242 19.999 26.701-260.58 30.916-310.14 4.2152-49.553 17.105-63.012 17.105-63.012l-15.368-10.004 13.577-19.797-28.498-43.94-17.175-0.24334c0.73334 1.7724-3.8149-0.71241-3.4943 6.6326z" fill="#3c3c3c" stroke="#000" stroke-width=".27185px"/>
  <path d="m857.84-163.09c30.485-0.63436 75.205 5.2744 117.44 50.202 21.018 22.358 24.118 21.927 30.051 80.415 7.2384 71.354-36.883 160.8-52.493 177.52-24.337 26.068-13.524 23.804-43.101 21.421-17.386-1.4009-23.955 8.3417-47.866-21.142-8.148-10.046-25.493-24.631-39.235-56.088-13.742-31.457-31.432-49.992-41.62-77.483-5.5164-14.885-10.248-46.507-10.248-46.507 0.55969-40.717 16.308-73.988 38.936-102.09 0 0 17.65-25.617 48.135-26.251z" fill="#e9c6af"/>
  <path d="m772.4-21.424c3.4956-20.616 6.3639-32.628 24.183-34.94 17.819-2.3121 26.969 17.03 26.086 30.337-1.2933 19.489-22.822 68.835-12.78 88.958 10.042 20.123 48.616 104.7 77.864 104.26 28.276-2.0128 39.641 4.1497 45.664 0.763 11.523-7.3403 46.413-55.736 53.516-83.673 2.5146-9.8908 0.74115-10.783-4.3877-21.619-6.1827-13.063-42.436-15.231-51.566-8.0529-10.783 8.4775-29.931 20.996-33.954 33.704-5.0043 15.806-69.063-43.373-62.08-72.023 4.623-18.968 5.4279-50.922 11.361-69.801 3.2527 1.1089 16.908 5.1481 19.979 5.022 1.643-2.9039 0.91401-14.862 4.1886-32.229-28.461-9.9837-50.585-20.069-74.611-39.803-16.409 23.013-33.022 69.878-23.461 99.1z" fill="#6c5353" opacity=".35999"/>
  <path d="m970.68 10.666c-2.2724-5.8826-4.4688-10.452-3.5295-14.562 0.51923-2.2719 1.3864-2.7283 1.6483-4.3436 0.14674-0.90465 0.42033-1.0085 0.23779-2.3969 2.8915 5.9402 6.3445 20.455 2.9335 24.312-0.36305-1.7951-0.90588-2.0147-1.2901-3.0094z" fill="#999"/>
  <g transform="matrix(.98794 .068548 -.069219 .9976 334.94 -42.698)">
   <path d="m477.16-151.35s39.243-26.163 88.219-11.267c21.878 6.6542 51.049 13.993 77.332 31.619 23.049 15.457 28.566 47.656 24.788 47.799-11.455 0.43307-19.477 8.3283-26.694 15.191-7.2172 6.8627-58.025-25.557-104.03-17.834-42.622-7.0831-59.69-14.267-71.38-27.142-5.5459-6.1081-5.597-5.8058-6.4579-10.834 1.2714-7.8006 10.572-17.98 18.221-27.532z" fill="#483e37"/>
   <path d="m640.05-67.246-5.8859 6.1363s-58.277-27.067-97.354-13.893c-59.38-7.4069-77.942-34.543-77.942-34.543s-0.50582-1.4082 0.0624-14.274c1.1891 7.6301 16.49 21.379 40.473 28.821 15.112 4.6888 31.376 7.6779 37.365 9.155 3.2917-1.8647 35.491-18.27 103.28 18.597z" fill="#3b332d"/>
   <path d="m668.09-83.585-0.95061 3.4849s-7.6904-0.23264-24.248 14.798c-3.7027 3.3613-3.7115 2.0859-8.7209 4.1903 0.67207-2.3616 2.5275-5.0311 5.7824-7.0224 3.7579-3.1281 12.507-11.195 18.144-13.309 6.2052-2.3277 9.9934-2.1417 9.9934-2.1417z" fill="#241f1c"/>
  </g>
  <path d="m996.71-17.93c-2.171-0.4723-4.227-0.7223-5.922-0.6103-3.072 0.204-7.206 0.053-10.875 0.544-1.877 0.2513-3.623 0.6487-5.145 1.4834-1.539 0.8446-3.091 2.4312-3.513 4.9164-1.214 7.1342-2.17 14.36-0.223 22.602 0.481 2.0347 0.817 3.3574 1.543 4.5215 0.72 1.1555 1.629 1.9454 3.233 3.4451 1.416 1.3239 3.55 2.03 6.194 2.568 2.581 0.5253 5.598 0.7976 8.671 0.8406 5.895 0.0824 11.918-0.6424 15.763-2.2475 1.623-0.6778 2.834-1.9885 3.501-3.6912 0.665-1.6955 0.833-3.2598 1.201-4.9634 0.685-3.1588 1.657-7.8813 2.209-12.183 0.277-2.1517 0.456-4.2006 0.413-6.0063-0.042-1.8112-0.307-3.5953-1.233-4.5031-1.673-1.6395-5.225-3.3368-9.335-4.8143-2.12-0.7622-4.354-1.439-6.482-1.9023zm-0.694 4.1137c2.055 0.4016 4.272 1.0044 6.347 1.7072 4.028 1.3633 7.701 3.2141 8.826 4.2865 0.115 0.1099 0.319 0.6392 0.351 1.9214 0.033 1.2795-0.105 3.1007-0.36 5.0858-0.509 3.9686-1.462 8.6246-2.14 11.744-0.433 1.9947-0.669 3.3841-0.911 3.9968-0.243 0.6136-0.457 0.9949-1.72 1.5002-3.385 1.3546-9.369 2.0312-15.092 1.8423-2.98-0.0984-5.899-0.4224-8.319-0.964-2.475-0.5538-4.436-1.4244-5.193-2.1528-1.584-1.5258-2.347-2.2871-2.729-2.9147-0.384-0.6302-0.574-1.3293-1.031-3.3087-1.665-7.2165-0.869-13.062 0.301-19.961 0.054-0.3145 0.247-0.7094 1.25-1.2775 0.995-0.5638 2.534-0.9991 4.268-1.2634 3.394-0.5172 7.497-0.4562 10.725-0.7305 1.41-0.1198 3.33 0.0793 5.427 0.489z" color="#000000" color-rendering="auto" dominant-baseline="auto" fill="#666" image-rendering="auto" shape-rendering="auto" solid-color="#000000" stop-color="#000000" style="font-feature-settings:normal;font-variant-alternates:normal;font-variant-caps:normal;font-variant-east-asian:normal;font-variant-ligatures:normal;font-variant-numeric:normal;font-variant-position:normal;font-variation-settings:normal;inline-size:0;isolation:auto;mix-blend-mode:normal;shape-margin:0;shape-padding:0;text-decoration-color:#000000;text-decoration-line:none;text-decoration-style:solid;text-indent:0;text-orientation:mixed;text-transform:none;white-space:normal"/>
  <path d="m967.09-12.44s11.013 47.489 12.417 55.886c1.4033 8.3969 4.7951 13.285 0.72466 18.707-2.785 3.7096-6.9455 2.973-10.655 3.2389-2.3113 0.1657-0.01 0.90756-6.8735-1.0495-6.8638-1.9571-12.596-7.399-12.596-7.399s-10.755-3.983-10.864-8.5362c-0.32798-13.708 16.923-59.549 16.923-59.549z" fill="url(#linearGradient19702)"/>
  <path d="m945.5 6.8342c1.2306-7.4727-0.50512-11.944 2.9584-15.641 1.9144-2.0436 4.7171-2.8353 5.9678-4.3529 0.70047-0.84998 1.0454-0.79272 1.7004-2.343-0.62778 7.9058-5.8835 25.045-11.739 26.989 0.71594-2.0811 0.90486-3.3884 1.113-4.652z" fill="#999"/>
  <g transform="matrix(.99559 -.055743 .08488 3.5292 714.33 915.31)">
   <path d="m199.87-266.61-89.088-6.036-0.391 0.693s11.447 0.398 16.602 2.289l71.813 5.15z" fill="#4d4d4d"/>
   <g shape-rendering="auto">
    <path d="m111.33-272.74-0.496 0.959s-12.484-0.885-18.202-0.849c-2.8726 0.018-5.0455 0.477-7.5771 1.782-4.7285 2.437-6.8509 3.81-6.8509 3.81s-6.2659 0.569-3.6051-0.723c2.699-1.31 10.999-5.958 18.607-5.871 6.5482 0.075 18.124 0.892 18.124 0.892z" color="#000000" color-rendering="auto" dominant-baseline="auto" fill="#333" image-rendering="auto" solid-color="#000000" stop-color="#000000" style="font-feature-settings:normal;font-variant-alternates:normal;font-variant-caps:normal;font-variant-east-asian:normal;font-variant-ligatures:normal;font-variant-numeric:normal;font-variant-position:normal;font-variation-settings:normal;inline-size:0;isolation:auto;mix-blend-mode:normal;shape-margin:0;shape-padding:0;text-decoration-color:#000000;text-decoration-line:none;text-decoration-style:solid;text-indent:0;text-orientation:mixed;text-transform:none;white-space:normal"/>
    <path d="m111.35-272.77s-11.575-0.816-18.133-0.891c-3.8695-0.044-7.9011 1.127-11.28 2.455-3.3201 1.306-6.0334 2.775-7.3745 3.426-0.3379 0.164-0.5376 0.299-0.6275 0.413-0.0898 0.114-0.0649 0.21 0.0505 0.281 0.231 0.142 0.775 0.189 1.396 0.198 1.2479 0.02 2.8356-0.124 2.8356-0.124l0.0236-2e-3 0.0141-0.01s2.1204-1.371 6.8483-3.807c2.525-1.302 4.6715-1.755 7.5298-1.772 5.7017-0.035 18.189 0.85 18.189 0.85l0.067 5e-3 0.526-1.017zm-0.098 0.054-0.466 0.901c-0.119-8e-3 -12.44-0.88-18.146-0.844-2.887 0.018-5.0858 0.484-7.6242 1.793-4.7063 2.426-6.8175 3.79-6.838 3.803-0.0357 3e-3 -1.5766 0.141-2.7882 0.122-0.6099-9e-3 -1.1257-0.063-1.3121-0.178-0.0932-0.057-0.1167-0.129-0.0361-0.231 0.0806-0.103 0.2707-0.233 0.6022-0.394 1.3482-0.655 4.056-2.12 7.3675-3.422 3.3697-1.324 7.3823-2.483 11.194-2.439 6.5057 0.075 17.932 0.881 18.048 0.889z" color="#000000" color-rendering="auto" dominant-baseline="auto" image-rendering="auto" solid-color="#000000" stop-color="#000000" style="font-feature-settings:normal;font-variant-alternates:normal;font-variant-caps:normal;font-variant-east-asian:normal;font-variant-ligatures:normal;font-variant-numeric:normal;font-variant-position:normal;font-variation-settings:normal;inline-size:0;isolation:auto;mix-blend-mode:normal;shape-margin:0;shape-padding:0;text-decoration-color:#000000;text-decoration-line:none;text-decoration-style:solid;text-indent:0;text-orientation:mixed;text-transform:none;white-space:normal"/>
   </g>
  </g>
  <path d="m928.09-34c-3.821-0.907-8.137-1.665-12.517-2.266-9.167-1.258-18.184-1.856-23.317-0.924-2.955 0.537-4.9 2.988-6.31 5.7-1.419 2.729-2.436 6.025-3.271 9.564-1.675 7.0993-2.524 15.112-2.998 20.465-0.254 2.8778-0.954 5.4555-0.396 8.4054 0.555 2.9327 2.825 5.3321 6.532 6.7588 8.229 3.1674 20.802 5.0812 31.978 5.6743 5.282 0.2803 10.257 0.2538 14.41-0.1196 4.034-0.3628 7.253-0.9524 9.668-2.2962 2.649-1.474 4.087-2.2234 5.415-3.3804 1.315-1.1469 2.215-2.5079 3.542-4.5822 5.183-8.107 6.74-15.65 7.99-23.166 0.435-2.6184-0.635-4.8193-1.985-6.3193-1.367-1.519-3.189-2.733-5.278-3.895-4.289-2.387-9.786-4.491-14.023-6.53-2.45-1.179-5.721-2.207-9.44-3.089zm-0.913 5.457c3.591 0.785 6.659 1.68 8.713 2.623 4.492 2.063 9.984 4.062 13.993 6.202 1.957 1.044 3.57 2.152 4.485 3.1417 0.908 0.9816 0.976 1.4591 0.92 1.7997-1.245 7.4681-2.521 13.743-7.205 20.97-1.327 2.0477-1.836 2.7724-2.56 3.3902-0.728 0.6208-1.999 1.3295-4.684 2.776-1.315 0.7082-4.381 1.4086-8.185 1.6802-3.909 0.2792-8.733 0.2181-13.853-0.1523-10.82-0.7826-23.206-3.0202-30.367-5.9358-2.822-1.1487-3.102-1.8112-3.291-2.847-0.19-1.0379 0.183-3.2909 0.476-6.5643 0.46-5.1355 1.302-12.805 2.792-19.17 0.743-3.173 1.663-6.009 2.63-7.895 0.962-1.878 1.825-2.5 2.181-2.571 3.409-0.684 12.799-0.502 21.734 0.549 4.274 0.503 8.535 1.197 12.221 2.003z" color="#000000" color-rendering="auto" dominant-baseline="auto" fill="#666" image-rendering="auto" shape-rendering="auto" solid-color="#000000" stop-color="#000000" style="font-feature-settings:normal;font-variant-alternates:normal;font-variant-caps:normal;font-variant-east-asian:normal;font-variant-ligatures:normal;font-variant-numeric:normal;font-variant-position:normal;font-variation-settings:normal;inline-size:0;isolation:auto;mix-blend-mode:normal;shape-margin:0;shape-padding:0;text-decoration-color:#000000;text-decoration-line:none;text-decoration-style:solid;text-indent:0;text-orientation:mixed;text-transform:none;white-space:normal"/>
  <path d="m970.29-5.0057 6.907-12.391c-11.771 2.7047-21.693-4.3026-21.693-4.3026l1.998 14.457s8.467-10.415 12.788 2.2368z" fill="#666"/>
  <path d="m897.24 263.33-0.98965-27.869s-18.346 27.033-19.634 56.094c-26.781-17.881-74.87-90.857-76.572-115.85-1.7025-24.993-2.4899-25.272 0.70121-37.48 7.927 39.473 79.155 100.48 95.505 97.235 1.2221 26.274 0.98965 27.869 0.98965 27.869z" fill="#ccc" stroke="#000" stroke-width=".32635px"/>
  <g transform="matrix(1.1555 -.17771 .17771 1.1555 233.49 32.681)">
   <path d="m448.45 173.05-13.871-4.9036-153.73 42.432s7.0752 7.919 3.0064 26.742-1.4933 73.144-1.4933 73.144l194.2 33.051z" fill="#202020"/>
   <path d="m464.67 178.97c2.9687 13.737 40.621 109.12 50.318 179.92s11.776 222.75 10.381 242.6c-1.3949 19.845-60.624-247.63-71.322-294.83-10.697-47.205-24.925-58.454-24.925-58.454l13.476-11.701-15.738-17.267 21.59-46.174 15.537-4.3255c-0.46968 1.8068 9e-3 3.1188 0.68321 10.242z" fill="#3c3c3c" stroke="#000" stroke-width=".26458px"/>
  </g>
  <path d="m800.44-60.293c-1.0398-0.11101-2.1207-0.1475-3.2427-0.1028-17.439 0.69461-24.008 11.309-26.748 30.952-1.4818 10.623-1.416 28.411 1.1262 37.754 5.476 20.123 1.6873 11.521 10.764 29.329 4.8596 9.5339 21.679 8.3687 21.691 7.7727 0.44459-22.485 13.421-53.97 16.446-73.266 1.9363-12.352-4.4386-30.774-20.036-32.439z" fill="#e9c6af"/>
  <g transform="matrix(.46192 0 0 .46192 433.11 -91.649)">
   <path d="m881.95 676.79c-7.596 17.094-17.577 123.35-8.502 137.52 13.159 20.547 128.68-44.952 128.68-44.952l1.58-31.319s-110.64-86.288-121.76-61.245z" fill="#a0c12c"/>
   <path d="m1097.1 702.07c2.96 13.395 1.76 90.269-3.91 101.06-8.63 16.467-91.08-33.785-91.08-33.785l1.46-31.325s89.03-56.287 93.53-35.953z" fill="#a0c12c"/>
   <path d="m1003.8 718.4c-23.842-1.399-23.66-0.637-25.154 36.942-1.271 32.009-0.443 32.731 22.854 31.777 22.68-0.929 23.63-0.888 24.81-32.15 1.26-33.634 1.2-35.179-22.51-36.569z" fill="#b1d631"/>
  </g>
  <g transform="rotate(-4.4913 642.57 118.22)"></g>
  <g transform="translate(4.2333 -5.8208)" stroke-width=".47645">
   <path d="m1496.7 562.01 526.11 62.118c-1.7246 6.3194 7.8942 11.517-21.051 28.8l-511.87 322.97c-90.541 54.056-208.44 95.23-251.41 85.092l-848.53-211.17c-15.772-38.066 67.34-30.837 196.71-64.632l789.83-206.33c47.781-12.483 100.06-19.67 120.21-16.855z" fill="#a0c12c"/>
   <path d="m1495.9 541 512.86 70.982c24.046 3.3283 21.811 19.036-7.1122 36.355l-512.03 306.56c-90.474 54.168-208.32 95.49-251.3 85.407l-842.6-197.75c-30.49-7.1547 61.112-43.272 190.44-77.229l789.57-207.32c47.765-12.543 100.03-19.796 120.19-17.006z" fill="#b1d631"/>
  </g>
  <g transform="rotate(5.23 1878.2 -3533)">
   <g transform="rotate(8.064 653.56 -1444.7)">
    <path d="m2093.8 627.41c-9.2138 5.2204-32.729 11.381-52.151 13.695l-344.77 41.075c-11.718 1.3945-13.523-0.93212-4.3306-5.1535l117.86-54.141c1.2008-0.23553 3.2122-0.71175 5.0174-1.5258 3.4799-1.6164 29.721-13.665 32.394-14.897 1.7243-0.7944 0.6727-0.77688-0.1719-0.68373l97.547-44.814c6.55-3.0067 21.243-7.1305 33.163-9.3023l350.54-90.574c-2.4331 10.435 5.4317 6.4842-0.5229 9.8558z" fill="#e6e6e6" stroke="#808080" stroke-width="2"/>
    <g transform="translate(-36.088 -1005.7)">
     <path d="m2126.9 1614c-9 5.59-32.18 12.71-51.43 15.82l-341.95 55.16c-11.62 1.88-13.5-0.38-4.49-4.97l115.51-58.97c1.2-0.29 3.19-0.85 4.95-1.73 3.42-1.76 29.13-14.89 31.75-16.23 1.69-0.86 0.65-0.8-0.2-0.68l95.62-48.81c6.42-3.27 20.91-7.99 32.71-10.65l331.25-74.6c17.78-4.01 27.72-4.41 21.9-0.79z" fill="#e6e6e6" stroke="#808080" stroke-width="2"/>
     <g transform="translate(7.1728e-5)">
      <path d="m2095.3 1615.8 225.14-136.76c1.12-0.67-0.62-0.63-3.89 0.09l-208.53 46.36c-2.55 0.57-5.56 1.54-6.75 2.19l-234.02 126.45c-1.67 0.9-0.95 1.28 1.65 0.85l217.12-36.31c3.48-0.59 7.63-1.87 9.28-2.87z" fill="#ccc" stroke="#808080" stroke-width="1.3604"/>
      <g transform="translate(2.2264)" fill="#1a1a1a" stroke="#b1d635">
       <g transform="translate(-598.84 275.22)" stroke-width="1.75">
        <path d="m2687.1 1339.8 16.7-10.09c0.72-0.44 0.05-0.57-1.5-0.3l-14.13 2.45c-1.53 0.27-3.33 0.83-4.06 1.26l-16.75 10.02c-0.75 0.45-0.12 0.6 1.41 0.34l14.17-2.39c1.56-0.26 3.42-0.84 4.16-1.29z"/>
        <path d="m2711.5 1325 16.07-9.72c0.69-0.42 0-0.53-1.54-0.25l-14.07 2.53c-1.52 0.27-3.3 0.83-3.99 1.24l-16.13 9.65c-0.72 0.43-0.07 0.56 1.45 0.29l14.12-2.47c1.55-0.28 3.37-0.84 4.09-1.27z"/>
        <path d="m2735 1310.8 15.47-9.35c0.67-0.41-0.03-0.5-1.57-0.22l-14 2.61c-1.51 0.28-3.26 0.83-3.94 1.23l-15.53 9.29c-0.69 0.41-0.03 0.52 1.48 0.25l14.06-2.55c1.54-0.28 3.34-0.84 4.03-1.26z"/>
        <path d="m2757.6 1297.2 14.91-9.01c0.65-0.39-0.07-0.47-1.6-0.18l-13.93 2.67c-1.5 0.29-3.23 0.83-3.87 1.22l-14.98 8.95c-0.67 0.4 0.01 0.49 1.52 0.21l13.98-2.61c1.54-0.29 3.31-0.85 3.97-1.25z"/>
        <path d="m2779.3 1284 14.37-8.69c0.63-0.38-0.1-0.44-1.62-0.14l-13.85 2.72c-1.5 0.29-3.2 0.83-3.83 1.2l-14.45 8.64c-0.64 0.39 0.05 0.46 1.55 0.18l13.91-2.68c1.53-0.3 3.28-0.84 3.92-1.23z"/>
        <path d="m2800.3 1271.3 13.87-8.39c0.6-0.36-0.14-0.41-1.65-0.1l-13.78 2.77c-1.48 0.3-3.16 0.83-3.77 1.19l-13.94 8.34c-0.62 0.37 0.08 0.43 1.57 0.13l13.84-2.73c1.52-0.3 3.24-0.84 3.86-1.21z"/>
        <path d="m2820.6 1259.1 13.39-8.1c0.58-0.35-0.16-0.38-1.67-0.07l-13.69 2.81c-1.48 0.31-3.14 0.83-3.72 1.18l-13.47 8.06c-0.6 0.35 0.11 0.4 1.6 0.1l13.76-2.78c1.51-0.31 3.2-0.84 3.8-1.2z"/>
        <path d="m2840.2 1247.2 12.94-7.82c0.56-0.34-0.19-0.36-1.69-0.05l-13.6 2.86c-1.47 0.31-3.11 0.83-3.67 1.17l-13.02 7.78c-0.58 0.35 0.14 0.38 1.62 0.07l13.67-2.82c1.51-0.31 3.18-0.84 3.75-1.19z"/>
        <path d="m2859.1 1235.8 12.5-7.56c0.55-0.33-0.22-0.33-1.7-0.02l-13.52 2.9c-1.46 0.31-3.08 0.83-3.62 1.15l-12.59 7.53c-0.56 0.33 0.17 0.35 1.64 0.04l13.59-2.86c1.49-0.32 3.14-0.84 3.7-1.18z"/>
        <path d="m2877.3 1224.8 12.1-7.31c0.52-0.32-0.25-0.31-1.72 0.01l-13.44 2.93c-1.45 0.31-3.04 0.82-3.56 1.14l-12.19 7.28c-0.54 0.32 0.2 0.33 1.66 0.02l13.5-2.9c1.49-0.32 3.11-0.84 3.65-1.17z"/>
        <path d="m2895 1214.1 11.7-7.08c0.51-0.3-0.26-0.29-1.73 0.03l-13.34 2.96c-1.44 0.32-3.01 0.82-3.52 1.13l-11.8 7.05c-0.52 0.31 0.22 0.31 1.67-0.01l13.42-2.93c1.47-0.32 3.08-0.84 3.6-1.15z"/>
       </g>
       <g stroke-width="1.297">
        <g transform="matrix(.9494 0 0 1.9175 -510.73 -893.47)">
         <path d="m2709.2 1310.6 16.79-4.95c0.72-0.21-1.14-0.18-4.17 0.08l-27.31 2.35c-2.92 0.25-5.86 0.63-6.58 0.84l-16.87 4.87c-0.75 0.22 1 0.2 3.93-0.05l27.38-2.29c3.03-0.25 6.09-0.63 6.83-0.85z"/>
         <path d="m2733.8 1303.4 16.2-4.77c0.7-0.21-1.18-0.16-4.19 0.11l-27.23 2.42c-2.91 0.26-5.81 0.63-6.52 0.83l-16.28 4.71c-0.72 0.21 1.04 0.17 3.96-0.08l27.3-2.36c3.02-0.26 6.05-0.65 6.76-0.86z"/>
         <path d="m2757.4 1296.4 15.63-4.61c0.68-0.2-1.2-0.14-4.21 0.14l-27.12 2.48c-2.9 0.27-5.78 0.64-6.46 0.84l-15.73 4.54c-0.7 0.21 1.08 0.16 3.99-0.1l27.2-2.43c3.02-0.27 6.01-0.66 6.7-0.86z"/>
         <path d="m2780.2 1289.7 15.1-4.45c0.65-0.2-1.24-0.12-4.23 0.16l-27.01 2.54c-2.89 0.27-5.74 0.65-6.4 0.84l-15.2 4.39c-0.68 0.2 1.11 0.14 4.01-0.13l27.1-2.5c3-0.27 5.96-0.66 6.63-0.85z"/>
         <path d="m2802.3 1283.2 14.59-4.3c0.63-0.18-1.26-0.1-4.24 0.19l-26.89 2.6c-2.88 0.27-5.7 0.65-6.34 0.83l-14.7 4.25c-0.66 0.19 1.14 0.12 4.03-0.15l26.98-2.56c2.99-0.28 5.93-0.66 6.57-0.86z"/>
         <path d="m2823.6 1276.9 14.1-4.16c0.62-0.18-1.29-0.09-4.25 0.2l-26.77 2.65c-2.86 0.29-5.66 0.66-6.28 0.84l-14.22 4.11c-0.63 0.18 1.17 0.1 4.04-0.18l26.87-2.6c2.98-0.29 5.88-0.68 6.51-0.86z"/>
         <path d="m2844.2 1270.8 13.65-4.02c0.59-0.18-1.31-0.08-4.26 0.22l-26.64 2.69c-2.85 0.29-5.62 0.66-6.22 0.84l-13.77 3.98c-0.61 0.17 1.19 0.09 4.06-0.2l26.74-2.65c2.96-0.3 5.83-0.68 6.44-0.86z"/>
         <path d="m2864.2 1264.9 13.22-3.9c0.57-0.16-1.34-0.06-4.27 0.25l-26.5 2.73c-2.84 0.29-5.58 0.66-6.16 0.83l-13.34 3.86c-0.6 0.17 1.22 0.07 4.07-0.21l26.6-2.71c2.95-0.3 5.8-0.68 6.38-0.85z"/>
         <path d="m2883.5 1259.2 12.8-3.78c0.55-0.16-1.35-0.04-4.27 0.26l-26.36 2.77c-2.82 0.3-5.54 0.67-6.1 0.83l-12.93 3.74c-0.58 0.17 1.24 0.06 4.07-0.23l26.47-2.74c2.93-0.31 5.75-0.69 6.32-0.85z"/>
         <path d="m2902.2 1253.7 12.41-3.65c0.53-0.16-1.37-0.04-4.27 0.27l-26.22 2.8c-2.81 0.3-5.5 0.67-6.04 0.83l-12.54 3.63c-0.56 0.16 1.26 0.05 4.08-0.25l26.33-2.78c2.91-0.31 5.7-0.69 6.25-0.85z"/>
         <path d="m2920 1248.4 21.98-6.48c0.5-0.15-1.37-0.02-4.2 0.29l-25.55 2.8c-2.74 0.3-5.35 0.66-5.86 0.81l-22.24 6.43c-0.53 0.15 1.26 0.04 4.03-0.26l25.75-2.76c2.85-0.31 5.57-0.68 6.09-0.83z"/>
        </g>
        <g transform="matrix(-.9494 0 0 1.9175 3263.3 -855.89)">
         <path d="m1075.6 1227 11.98 3.45c0.53 0.15 3.18 0.51 5.94 0.81l24.93 2.71c2.68 0.28 4.39 0.4 3.86 0.24l-12.1-3.42c-0.53-0.15-3.09-0.5-5.75-0.8l-24.84-2.72c-2.74-0.3-4.54-0.42-4.02-0.27z"/>
         <path d="m1093.3 1232.1 12.35 3.56c0.54 0.15 3.22 0.52 5.99 0.82l25.06 2.67c2.69 0.28 4.4 0.39 3.85 0.23l-12.47-3.53c-0.54-0.15-3.12-0.51-5.8-0.79l-24.96-2.7c-2.76-0.3-4.55-0.41-4.02-0.26z"/>
         <path d="m1111.5 1237.3 12.73 3.67c0.56 0.16 3.26 0.53 6.05 0.82l25.18 2.63c2.7 0.29 4.4 0.38 3.83 0.22l-12.83-3.63c-0.56-0.16-3.17-0.52-5.86-0.8l-25.08-2.66c-2.78-0.3-4.57-0.41-4.02-0.25z"/>
         <path d="m1130.3 1242.7 13.12 3.78c0.58 0.17 3.31 0.54 6.11 0.83l25.29 2.6c2.71 0.27 4.42 0.36 3.83 0.2l-13.23-3.75c-0.58-0.16-3.21-0.52-5.91-0.8l-25.2-2.63c-2.79-0.29-4.58-0.39-4.01-0.23z"/>
         <path d="m1149.7 1248.3 13.55 3.9c0.6 0.17 3.35 0.54 6.16 0.82l25.41 2.56c2.72 0.27 4.41 0.36 3.81 0.18l-13.65-3.86c-0.59-0.17-3.24-0.52-5.96-0.8l-25.31-2.59c-2.8-0.29-4.59-0.38-4.01-0.21z"/>
         <path d="m1169.7 1254.1 13.98 4.03c0.62 0.18 3.4 0.54 6.23 0.82l25.5 2.51c2.73 0.27 4.42 0.35 3.8 0.17l-14.08-3.99c-0.61-0.17-3.29-0.53-6.01-0.8l-25.43-2.55c-2.81-0.28-4.6-0.37-3.99-0.19z"/>
         <path d="m1190.3 1260 14.44 4.16c0.64 0.18 3.45 0.55 6.28 0.83l25.61 2.46c2.74 0.26 4.42 0.32 3.77 0.14l-14.53-4.11c-0.63-0.18-3.33-0.54-6.07-0.81l-25.53-2.5c-2.82-0.27-4.6-0.35-3.97-0.17z"/>
         <path d="m1211.6 1266.2 14.93 4.3c0.66 0.2 3.49 0.56 6.33 0.83l25.7 2.41c2.75 0.26 4.42 0.31 3.75 0.12l-15.01-4.25c-0.65-0.18-3.38-0.54-6.12-0.8l-25.62-2.45c-2.84-0.27-4.61-0.34-3.96-0.16z"/>
         <path d="m1233.7 1272.5 15.44 4.44c0.68 0.2 3.54 0.57 6.4 0.83l25.77 2.35c2.76 0.25 4.42 0.29 3.73 0.1l-15.51-4.39c-0.68-0.19-3.43-0.55-6.18-0.81l-25.71-2.39c-2.85-0.27-4.61-0.33-3.94-0.13z"/>
         <path d="m1256.5 1279.1 15.97 4.61c0.71 0.2 3.6 0.57 6.46 0.82l25.85 2.28c2.76 0.25 4.41 0.28 3.7 0.08l-16.04-4.54c-0.7-0.2-3.47-0.55-6.23-0.8l-25.79-2.34c-2.86-0.26-4.61-0.3-3.92-0.11z"/>
         <path d="m1280.4 1285.9 30.8 8.87c0.74 0.21 3.61 0.57 6.44 0.81l25.51 2.13c2.73 0.23 4.33 0.24 3.59 0.03l-30.9-8.74c-0.71-0.2-3.46-0.56-6.18-0.79l-25.44-2.23c-2.82-0.25-4.53-0.29-3.82-0.08z"/>
        </g>
        <g transform="matrix(-.9494 0 0 1.9175 3291.9 -780.22)">
         <path d="m1186.3 1196.3 36.83 10.18c0.55 0.16 2.99 0.49 5.47 0.75l22.43 2.38c2.41 0.26 3.89 0.34 3.34 0.19l-37.05-10.1c-0.53-0.15-2.87-0.47-5.26-0.73l-22.25-2.45c-2.46-0.27-4.03-0.37-3.51-0.22z"/>
         <path d="m1228.6 1208.1 13.08 3.62c0.58 0.16 3.1 0.5 5.64 0.77l23 2.39c2.47 0.26 3.98 0.34 3.4 0.18l-13.16-3.59c-0.57-0.15-3-0.49-5.47-0.75l-22.94-2.42c-2.53-0.27-4.12-0.36-3.55-0.2z"/>
         <path d="m1247.9 1213.4 13.47 3.73c0.6 0.17 3.14 0.51 5.69 0.77l23.07 2.36c2.48 0.25 3.98 0.32 3.38 0.16l-13.54-3.7c-0.59-0.16-3.05-0.49-5.52-0.75l-23.01-2.38c-2.55-0.27-4.13-0.35-3.54-0.19z"/>
         <path d="m1267.8 1218.9 13.89 3.84c0.61 0.17 3.17 0.51 5.73 0.77l23.14 2.31c2.48 0.25 3.97 0.31 3.35 0.14l-13.95-3.8c-0.6-0.16-3.08-0.5-5.55-0.75l-23.09-2.35c-2.55-0.26-4.13-0.33-3.52-0.16z"/>
         <path d="m1288.3 1224.6 14.32 3.96c0.63 0.18 3.22 0.52 5.78 0.77l23.2 2.27c2.48 0.24 3.97 0.3 3.33 0.12l-14.38-3.92c-0.62-0.17-3.11-0.5-5.6-0.75l-23.15-2.3c-2.56-0.26-4.12-0.32-3.5-0.15z"/>
         <path d="m1309.4 1230.4 14.77 4.09c0.65 0.18 3.26 0.52 5.83 0.77l23.25 2.21c2.49 0.24 3.96 0.29 3.3 0.11l-14.82-4.04c-0.64-0.18-3.16-0.51-5.64-0.75l-23.21-2.26c-2.57-0.25-4.12-0.31-3.48-0.13z"/>
         <path d="m1331.2 1236.5 15.25 4.22c0.68 0.19 3.3 0.53 5.88 0.77l23.29 2.16c2.49 0.24 3.95 0.27 3.27 0.09l-15.28-4.17c-0.67-0.18-3.2-0.51-5.69-0.75l-23.26-2.21c-2.57-0.24-4.12-0.29-3.46-0.11z"/>
         <path d="m1353.8 1242.7 15.74 4.36c0.7 0.19 3.35 0.53 5.93 0.77l23.32 2.1c2.5 0.22 3.94 0.25 3.24 0.06l-15.77-4.3c-0.69-0.18-3.24-0.52-5.73-0.75l-23.3-2.15c-2.58-0.24-4.11-0.28-3.43-0.09z"/>
         <path d="m1377.6 1249.2 47.9 13.26c0.73 0.2 3.34 0.53 5.84 0.74l22.61 1.88c2.42 0.21 3.78 0.21 3.05 0.01l-47.94-13.07c-0.68-0.19-3.18-0.51-5.6-0.73l-22.58-2.02c-2.5-0.23-3.97-0.26-3.28-0.07z"/>
        </g>
        <g transform="matrix(-.9494 0 0 1.9175 3274.7 -818.32)">
         <path d="m1128.2 1211.8 25.53 7.2c0.54 0.15 3.12 0.5 5.76 0.79l23.93 2.56c2.56 0.27 4.18 0.37 3.62 0.22l-25.72-7.14c-0.53-0.15-3.01-0.49-5.56-0.77l-23.76-2.61c-2.62-0.29-4.32-0.4-3.8-0.25z"/>
         <path d="m1159.6 1220.6 12.75 3.6c0.56 0.16 3.16 0.51 5.82 0.79l24.02 2.53c2.57 0.27 4.18 0.36 3.62 0.2l-12.85-3.56c-0.56-0.16-3.07-0.5-5.64-0.78l-23.94-2.55c-2.65-0.28-4.34-0.39-3.78-0.23z"/>
         <path d="m1178.4 1226 13.14 3.71c0.58 0.16 3.2 0.52 5.87 0.79l24.11 2.49c2.59 0.27 4.19 0.35 3.61 0.19l-13.23-3.67c-0.58-0.16-3.11-0.51-5.69-0.78l-24.04-2.52c-2.66-0.28-4.34-0.37-3.77-0.21z"/>
         <path d="m1197.8 1231.4 13.55 3.83c0.6 0.16 3.25 0.52 5.93 0.79l24.2 2.45c2.59 0.26 4.19 0.34 3.59 0.17l-13.64-3.78c-0.59-0.17-3.14-0.51-5.73-0.78l-24.13-2.48c-2.67-0.28-4.35-0.36-3.77-0.2z"/>
         <path d="m1217.8 1237.1 13.98 3.94c0.62 0.17 3.29 0.53 5.97 0.8l24.29 2.4c2.6 0.26 4.19 0.33 3.57 0.15l-14.05-3.9c-0.61-0.17-3.19-0.51-5.78-0.77l-24.23-2.45c-2.68-0.27-4.35-0.35-3.75-0.17z"/>
         <path d="m1238.4 1242.9 14.42 4.07c0.64 0.18 3.33 0.53 6.03 0.79l24.36 2.36c2.61 0.25 4.19 0.31 3.55 0.14l-14.5-4.03c-0.63-0.17-3.22-0.52-5.83-0.78l-24.3-2.39c-2.69-0.27-4.36-0.34-3.73-0.16z"/>
         <path d="m1259.7 1248.9 14.89 4.2c0.66 0.18 3.38 0.54 6.08 0.79l24.43 2.31c2.62 0.25 4.19 0.3 3.52 0.11l-14.95-4.15c-0.65-0.18-3.27-0.53-5.88-0.78l-24.38-2.34c-2.7-0.26-4.35-0.33-3.71-0.14z"/>
         <path d="m1281.7 1255.1 15.39 4.34c0.68 0.19 3.42 0.55 6.13 0.8l24.49 2.25c2.62 0.24 4.17 0.28 3.49 0.09l-15.44-4.29c-0.67-0.19-3.31-0.53-5.93-0.78l-24.44-2.29c-2.71-0.26-4.36-0.31-3.69-0.12z"/>
         <path d="m1304.4 1261.5 15.9 4.49c0.71 0.2 3.47 0.55 6.19 0.79l24.54 2.19c2.62 0.23 4.16 0.26 3.46 0.07l-15.95-4.43c-0.69-0.19-3.36-0.54-5.98-0.78l-24.5-2.23c-2.71-0.25-4.35-0.3-3.66-0.1z"/>
         <path d="m1328.4 1268.2 37.91 10.69c0.73 0.21 3.48 0.56 6.14 0.78l24.03 2.01c2.58 0.21 4.05 0.22 3.31 0.02l-37.98-10.55c-0.69-0.19-3.32-0.53-5.88-0.76l-23.99-2.12c-2.65-0.23-4.23-0.27-3.54-0.07z"/>
        </g>
       </g>
       <g transform="translate(.053363)">
        <g transform="matrix(.9494 0 0 1.9175 -511.24 -742.12)">
         <path d="m2542 1245.8 16.98-4.62c0.73-0.2-0.66-0.19-3.12 0.03l-22.21 1.9c-2.38 0.21-4.88 0.53-5.61 0.73l-16.97 4.55c-0.75 0.2 0.55 0.2 2.93 0l22.2-1.85c2.46-0.21 5.05-0.54 5.8-0.74z" stroke-width="1.297"/>
         <path d="m2566.8 1239 16.44-4.47c0.71-0.19-0.7-0.17-3.16 0.05l-22.21 1.97c-2.38 0.21-4.86 0.53-5.57 0.72l-16.44 4.41c-0.72 0.2 0.6 0.19 2.98-0.02l22.21-1.92c2.45-0.21 5.03-0.55 5.75-0.74z" stroke-width="1.297"/>
         <path d="m2590.7 1232.5 22.16-6.02c0.68-0.19-0.74-0.16-3.18 0.07l-22.01 2.03c-2.36 0.22-4.8 0.54-5.48 0.72l-22.17 5.95c-0.7 0.18 0.63 0.17 2.99-0.05l22.03-1.97c2.43-0.21 4.96-0.54 5.66-0.73z" stroke-width="1.4965"/>
         <path d="m2619.5 1224.6 75.29-20.47c0.61-0.16-0.89-0.1-3.36 0.15l-22.42 2.27c-2.4 0.25-4.83 0.58-5.46 0.74l-75.45 20.23c-0.69 0.18 0.69 0.15 3.11-0.07l22.54-2.1c2.49-0.23 5.06-0.56 5.75-0.75z" stroke-width="1.3471"/>
         <path d="m2700.3 1202.7 15.64-4.25c0.59-0.16-0.9-0.09-3.33 0.16l-22.02 2.28c-2.36 0.24-4.73 0.57-5.33 0.73l-15.69 4.2c-0.61 0.17 0.8 0.1 3.17-0.14l22.06-2.24c2.44-0.24 4.9-0.58 5.5-0.74z" stroke-width="1.3764"/>
         <path d="m2721.8 1196.9 13.25-3.6c0.57-0.15-0.92-0.07-3.35 0.18l-21.96 2.31c-2.36 0.25-4.71 0.58-5.29 0.73l-13.3 3.57c-0.59 0.15 0.83 0.09 3.19-0.16l22.01-2.28c2.43-0.25 4.86-0.59 5.45-0.75z" stroke-width="1.297"/>
        </g>
        <g stroke-width="1.6808">
         <path d="m2074.4 1547 11.45-6.24c0.52-0.28 0.06-0.32-1.03-0.09l-9.95 2.15c-1.08 0.23-2.36 0.65-2.88 0.93l-11.48 6.21c-0.53 0.29-0.09 0.34 0.99 0.11l9.97-2.13c1.09-0.23 2.4-0.65 2.93-0.94z"/>
         <path d="m2089.4 1538.8 11.18-6.1c0.51-0.27 0.04-0.3-1.04-0.07l-9.93 2.17c-1.07 0.24-2.35 0.65-2.86 0.93l-11.21 6.07c-0.52 0.28-0.07 0.32 1.01 0.08l9.94-2.14c1.09-0.24 2.39-0.66 2.91-0.94z"/>
         <path d="m2103.9 1530.9 10.94-5.96c0.49-0.27 0.02-0.29-1.07-0.05l-9.9 2.19c-1.07 0.24-2.33 0.65-2.83 0.92l-10.96 5.93c-0.5 0.27-0.05 0.31 1.02 0.07l9.93-2.17c1.08-0.24 2.37-0.65 2.87-0.93z"/>
         <path d="m2105 1535.4 11.15-6.13c0.51-0.28 0.02-0.31-1.09-0.06l-10.12 2.21c-1.09 0.24-2.38 0.65-2.89 0.93l-11.18 6.1c-0.52 0.28-0.05 0.32 1.04 0.08l10.14-2.19c1.12-0.24 2.43-0.66 2.95-0.94z"/>
        </g>
       </g>
      </g>
     </g>
     <path d="m2149.4 1600.5 199.48-124.06-24.97 5.49-201.13 123.14z" fill="#1a1a1a" stroke="#808080" stroke-width=".46444"/>
     <path d="m1928.8 1615.8 98.7-52.98c2.15-1.16 0.54-1.38-3.59-0.52l-88.72 18.69c-3.65 0.76-8.31 2.27-10.47 3.38l-98.75 50.7c-2.48 1.27-1.57 1.76 2.06 1.08l88.77-16.54c4.14-0.77 9.51-2.47 12-3.81z" fill="#ccc" stroke="#808080" stroke-width=".6925"/>
    </g>
   </g>
   <g transform="rotate(8.064 7658 8099)" stroke="#000">
    <g stroke="#000">
     <path d="m886.67 1269.7 233.19-92.79c6.59-2.62 9.5 8.77 6.58 25.42l-57.48 328.44c-2.53 14.46-9.66 29.31-16.04 33.4l-222.75 142.93c-8.529 5.47-13.808-3.17-11.745-19.53l47.435-376.36c2.436-19.32 11.765-37.91 20.81-41.51z" fill="#202020" stroke-width="1.4001"/>
     <g fill="#b1d635" stroke-width="3.2141" aria-label="&lt;&gt;">
      <path d="m977.69 1382.9-51.265 79.13 34.305 33.25-7.587 18.31-37.321-35.45 3.247-23.04 56.293-86.78z"/>
      <path d="m1038.5 1393.1-3.5 21.37-51.316 81.71-2.725-12.49 47.981-75.76-30.811-35.15 7.321-19.04z"/>
     </g>
    </g>
   </g>
   <g transform="rotate(7.4001 8191.9 8769.3)">
    <g>
     <path d="m886.67 1269.7 233.19-92.79c6.59-2.62 9.5 8.77 6.58 25.42l-57.48 328.44c-2.53 14.46-9.66 29.31-16.04 33.4l-222.75 142.93c-8.529 5.47-13.808-3.17-11.745-19.53l47.435-376.36c2.436-19.32 11.765-37.91 20.81-41.51z" fill="#202020" stroke="#000" stroke-width="1.4001"/>
     <g fill="#b1d635" stroke="#cdf83e" stroke-width="3.2141" aria-label="&lt;&gt;">
      <path d="m977.69 1382.9-51.265 79.13 34.305 33.25-7.587 18.31-37.321-35.45 3.247-23.04 56.293-86.78z"/>
      <path d="m1038.5 1393.1-3.5 21.37-51.316 81.71-2.725-12.49 47.981-75.76-30.811-35.15 7.321-19.04z"/>
     </g>
    </g>
   </g>
  </g>
  <path d="m1137.9 724.77s3.1894 0.26511 4.7252-11.207c0.1632-1.2189 1.152-10.449 0.9256-11.325-2.5468-9.8557-26.031 21.339-26.031 21.339z" fill="#181818"/>
  <path d="m1147.8 724.45s3.7912 0.26511 5.6168-11.207c0.194-1.2189 1.3693-10.449 1.1002-11.325-3.0273-9.8557-34.075 8.8089-34.075 8.8089z" fill="#6d6d6d" stroke="#4d4d4d" stroke-width=".46364px"/>
  <g transform="rotate(-6.1214 1006 247.66)">
   <path d="m1230.6 675.91s13.094 2.6921 17.821-2.8343c4.727-5.5264-29.486-46.665-28.863-13.332 0 4.9363 1.8496 10.245 11.042 16.167z" fill="#4d4d4d"/>
   <path d="m1250.2 616.67-34.004 26.11s11.612 6.9367 14.69 13.3c1.7311 3.5506-0.9157 8.6672 1.3221 13.522 3.2094 6.9849 2.0679 8.2502 10.769 12.513 9.9949 4.8907 11.785 1.5694 16.996 3.5254 7.8939 2.9652 15.541 8.1985 18.375 16.419 3.3249 9.6375-7.9749 22.659-5.9873 30.754 2.5467 10.371 17.435 13.993 17.954 5.5682 0.9592-15.565 3.0017-16.071 4.2869-21.75 2.0853-9.1844 2.626-14.625 2.5871-18.282-0.054-5.311-4.5084-14.679-10.123-18.775 6.3547 0.9195 10.99 0.1363 17.665 11.546 5.7298 9.8023 4.7042 32.758 7.9526 38.002 4.625 7.4645 22.753 7.1795 19.585-0.81673-4.1077-10.355 0.2296-18.785-4.7339-34.226-2.2438-6.9532-0.9836-7.5342-3.7596-13.042-4.1421-8.2287-14.891-14.222-18.584-15.969 2.7568-0.7232 15.413 8.5926 18.722 17.841 3.9706 11.117 4.3549 13.561 4.3549 13.561l1.3993 7.052s11.658-15.075 12.2-18.806c0.8234-5.7026 0.2225-14.922-3.7246-18.431-4.7112-4.176-11.932-9.4646-17.737-11.507 5.3656 1.5193 10.458 6.0585 15.757 8.0765 6.5813 2.5023 12.682 31.497 13.457 37.773 1.5745 12.926 22.346 10.343 22.451 4.7628-3.4826-9.0777-5.6427-9.1061-4.9211-21.849 0.6313-11.187-14.836-32.697-18.205-33.876-15.474-5.4244-13.164-5.3684-24.293-8.025-8.576-2.0468-29.754-3.1904-39.94-6.3131-23.798-7.2932-34.51-18.661-34.51-18.661z" fill="#e9c6af" stroke="#666" stroke-width="1.2303"/>
   <g>
    <g transform="translate(-53.172 .12264)">
     <path transform="matrix(.26307 .028214 -.028214 .26307 -2682.9 -1349.5)" d="m14768 4202.2c-1.343 0-2.666 0.066-3.984 0.1621 8.604 4.301 35.508 21.823 53.652 79.195 21.719 68.671 74.585 185.53 70.073 288.64 0.411 1.4471 0.606 2.9642 0.574 4.5547-1.411 70.621-22.735 494.29-43.16 890.17 29.279 85.276 69.821 178.34 126.25 277.16 183.22 85.856 419.9 179.33 670.65 249.54 22.163 6.2051 0.719 0.098 54.842 14.644-156.77-73.088 86.791-215.62 132.22-198.63-22.803-11.812-28.895-14.644-41.756-20.756-84.836-40.314-412.18-202.48-568.78-307.58-80.289-125.46-148.83-819.11-245.57-1067.6-49.804-97.188-66.199-164.6-123.02-185.54-40.838-15.051-62.974-24.052-81.997-23.99z" fill="#1a1a1a"/>
     <path d="m1166.5 521.56s-27.567-3.4115-31.33-14.581c-3.7632-11.17 31.33 14.581 31.33 14.581z" fill="#111"/>
     <path d="m1161.7 507.87s-40.287-15.371-42.61-33.505c-2.3235-18.134 42.61 33.505 42.61 33.505z" fill="#111"/>
    </g>
    <path d="m1260.7 624.31c-17.729-0.30443-72.361 27.175-37.216 48.933 1.4243 0.54602 3.4854 1.3419 7.729 2.9998-37.872-23.068 27.951-52.937 39.04-47.328-2.8104-1.8774-4.5598-3.0218-6.0227-3.9558-0.8864-0.41249-2.0839-0.6237-3.5296-0.64855z" fill="#b3b3b3"/>
    <path d="m1260.7 624.28c-18.186-0.29419-72.958 27.4-36.907 49.2 0.5985 0.23222 0.9258 0.2421 1.618 0.51115-38.843-23.539 28.725-53.925 40.098-48.201-0.5481-0.3643-0.6754-0.44488-1.1507-0.75904-1.1106-0.62749-2.3163-0.72924-3.6583-0.75095z" fill="#4d4d4d"/>
   </g>
  </g>
  <path d="m1111.1 648.44-7.3246 58.078s42.243 0.92286 61.993 6.2014c10.286 2.749 15.699 9.6324 28.38 12.984 16.913 4.4707 17.298 6.2758 36.236 4.8013 19.762-1.5386 17.583-5.2413 26.535-6.3888 12.821-1.6433 27.012-1.2987 38.353 3.4569 12.248 5.1357 13.687 18.877 22.281 22.708 10.234 4.5612 24.065-0.31789 18.573-5.1479-10.941-9.6231-9.6776-10.842-13.131-15.031-5.8364-7.078-10.077-11.154-13.377-13.81-4.955-3.9865-18.629-9.5165-28.973-10.459 7.7636-2.04 11.737-4.7136 29.337 1.7572 13.562 4.9862 30.236 20.787 36.244 22.651 8.0825 2.5084 19.861-4.6274 13.096-8.1472-9.4068-4.8939-11.926-12.1-27.04-21.28-7.4657-4.535-6.8668-5.4717-13.98-8.9053-11.365-5.4856-28.257-6.7723-34.131-6.9475 2.1885-1.792 24.503 1.8465 35.876 8.4415 12.48 7.2362 14.672 8.9214 14.672 8.9214l6.3339 4.58s-1.9652-15.438-4.3522-18.567c-3.7603-4.9283-11.831-12.637-18.43-14.453-8.2573-2.2731-20.693-4.8938-28.984-4.8851 7.2965-0.37828 17.006 2.2912 24.027 2.3775 8.3177 0.10217 35.779 21.965 40.559 26.278 9.2056 8.3078 21.126-0.30271 18.101-4.0934-7.6007-5.294-9.0862-4.6285-16.728-14.504-7.2382-9.354-37.812-24.595-42.111-24.773-21.3-0.88179-18.761-1.5599-34.108-0.88246-12.732 0.56201-42.138 6.9918-62.074 7.1723-54.974 0.49775-105.85-12.135-105.85-12.135z" fill="#e9c6af" stroke="#666" stroke-width="1.006"/>
  <path d="m1153.4 651.67c-11.712 3.715-44.647 48.728-22.368 72.21 5.7378 0.27903 11.403 0.54295 16.903 0.77503-18.018-1.9449 10.354-66.162 21.978-69.266 0.5844-0.15604 1.9394-0.0787 1.9394-0.0787s-7.1234-1.3904-18.453-3.6407z" fill="#ccc"/>
  <g transform="translate(169.57 -69.319)">
   <path d="m413.65 433.42s134.25 301.93 147.45 304.74c7.172 9.0151 284.36 50.582 407.26 55.924-28.261-9.2471 10.354-68.154 21.978-71.352 0.58439-0.16075 1.9396-0.0811 1.9396-0.0811s-258.35-51.75-324.57-76.966c-32.947-32.765-94.304-233.17-138.71-301.93-29.059-35.553-96.474-82.387-129.59-23.431-33.116 58.955 14.237 113.09 14.237 113.09z" fill="#282828"/>
   <g fill="#1a1a1a">
    <path d="m668.05 644.4s-35.222 6.0074-43.42-5.0086c-8.1984-11.016 43.42 5.0086 43.42 5.0086z"/>
    <path d="m657.8 630.95s-54.762-2.7049-63.383-21.932c-8.6214-19.227 63.383 21.932 63.383 21.932z"/>
    <path d="m402.04 416.19s21.73 20.861 29.811 31.964c0.86426 1.1875-7.9516-1.7451-17.786-14.275-6.6964-8.5317-12.025-17.689-12.025-17.689z"/>
   </g>
  </g>
  <path d="m1159.5 652.96c-0.1551 0.0154-0.3011 0.0356-0.4139 0.0667-11.625 3.1976-50.239 62.105-21.979 71.352-0.854-0.0371-1.7198-0.0703-2.591-0.10128 1.5564 0.0758 3.1087 0.15091 4.6194 0.216-28.261-9.1677 10.353-67.569 21.978-70.739 0.5844-0.15935 1.94-0.0806 1.94-0.0806s-2.7732-0.55739-3.5538-0.71314z" fill="#999"/>
 </g>
</svg>
